<svg width="36" height="36" viewBox="0 0 36 36" fill="none" xmlns="http://www.w3.org/2000/svg">
<path d="M16.3125 28.95L6.4125 19.05C6.2625 18.9 6.156 18.7375 6.093 18.5625C6.031 18.3875 6 18.2 6 18C6 17.8 6.031 17.6125 6.093 17.4375C6.156 17.2625 6.2625 17.1 6.4125 16.95L16.3125 7.05C16.5875 6.775 16.931 6.631 17.343 6.618C17.756 6.606 18.1125 6.75 18.4125 7.05C18.7125 7.325 18.869 7.6685 18.882 8.0805C18.894 8.4935 18.75 8.85 18.45 9.15L11.1 16.5H27.8625C28.2875 16.5 28.644 16.6435 28.932 16.9305C29.219 17.2185 29.3625 17.575 29.3625 18C29.3625 18.425 29.219 18.781 28.932 19.068C28.644 19.356 28.2875 19.5 27.8625 19.5H11.1L18.45 26.85C18.725 27.125 18.869 27.475 18.882 27.9C18.894 28.325 18.75 28.675 18.45 28.95C18.175 29.25 17.825 29.4 17.4 29.4C16.975 29.4 16.6125 29.25 16.3125 28.95Z" fill="black"/>
</svg>
