<svg width="30" height="30" viewBox="0 0 30 30" fill="none" xmlns="http://www.w3.org/2000/svg">
<path d="M5 25C4.3125 25 3.72417 24.7554 3.235 24.2663C2.745 23.7763 2.5 23.1875 2.5 22.5V7.5C2.5 6.8125 2.745 6.22417 3.235 5.735C3.72417 5.245 4.3125 5 5 5H25C25.6875 5 26.2763 5.245 26.7663 5.735C27.2554 6.22417 27.5 6.8125 27.5 7.5V22.5C27.5 23.1875 27.2554 23.7763 26.7663 24.2663C26.2763 24.7554 25.6875 25 25 25H5ZM15 16.25L5 10V22.5H25V10L15 16.25ZM15 13.75L25 7.5H5L15 13.75ZM5 10V7.5V22.5V10Z" fill="#B9B9B9"/>
</svg>
