<svg width="32" height="32" viewBox="0 0 32 32" fill="none" xmlns="http://www.w3.org/2000/svg">
<path d="M7.99998 10.6141H20V7.96059C20 6.85496 19.6111 5.91516 18.8333 5.14122C18.0555 4.36727 17.1111 3.9803 16 3.9803C14.8889 3.9803 13.9444 4.36727 13.1666 5.14122C12.3889 5.91516 12 6.85496 12 7.96059H9.33331C9.33331 6.12523 9.98353 4.56053 11.284 3.2665C12.5835 1.97334 14.1555 1.32676 16 1.32676C17.8444 1.32676 19.4169 1.97334 20.7173 3.2665C22.0168 4.56053 22.6666 6.12523 22.6666 7.96059V10.6141H24C24.7333 10.6141 25.3613 10.8737 25.884 11.3929C26.4057 11.913 26.6666 12.5379 26.6666 13.2677V26.5353C26.6666 27.265 26.4057 27.8899 25.884 28.41C25.3613 28.9292 24.7333 29.1888 24 29.1888H7.99998C7.26664 29.1888 6.63909 28.9292 6.11731 28.41C5.59465 27.8899 5.33331 27.265 5.33331 26.5353V13.2677C5.33331 12.5379 5.59465 11.913 6.11731 11.3929C6.63909 10.8737 7.26664 10.6141 7.99998 10.6141ZM7.99998 26.5353H24V13.2677H7.99998V26.5353ZM16 22.555C16.7333 22.555 17.3613 22.2954 17.884 21.7762C18.4057 21.2561 18.6666 20.6312 18.6666 19.9015C18.6666 19.1718 18.4057 18.5469 17.884 18.0268C17.3613 17.5076 16.7333 17.248 16 17.248C15.2666 17.248 14.6391 17.5076 14.1173 18.0268C13.5946 18.5469 13.3333 19.1718 13.3333 19.9015C13.3333 20.6312 13.5946 21.2561 14.1173 21.7762C14.6391 22.2954 15.2666 22.555 16 22.555ZM7.99998 26.5353V13.2677V26.5353Z" fill="#B9B9B9"/>
</svg>
