<svg width="32" height="32" viewBox="0 0 32 32" fill="none" xmlns="http://www.w3.org/2000/svg">
<path d="M16 5.30705C17.4145 5.30705 18.771 5.86619 19.7712 6.86146C20.7714 7.85672 21.3333 9.2066 21.3333 10.6141C21.3333 12.0216 20.7714 13.3715 19.7712 14.3668C18.771 15.362 17.4145 15.9212 16 15.9212C14.5855 15.9212 13.2289 15.362 12.2287 14.3668C11.2285 13.3715 10.6666 12.0216 10.6666 10.6141C10.6666 9.2066 11.2285 7.85672 12.2287 6.86146C13.2289 5.86619 14.5855 5.30705 16 5.30705ZM16 7.96059C15.2927 7.96059 14.6144 8.24015 14.1144 8.73779C13.6143 9.23542 13.3333 9.91036 13.3333 10.6141C13.3333 11.3179 13.6143 11.9928 14.1144 12.4904C14.6144 12.9881 15.2927 13.2676 16 13.2676C16.7072 13.2676 17.3855 12.9881 17.8856 12.4904C18.3857 11.9928 18.6666 11.3179 18.6666 10.6141C18.6666 9.91036 18.3857 9.23542 17.8856 8.73779C17.3855 8.24015 16.7072 7.96059 16 7.96059ZM16 17.2479C19.56 17.2479 26.6666 19.0125 26.6666 22.555V26.5353H5.33331V22.555C5.33331 19.0125 12.44 17.2479 16 17.2479ZM16 19.7688C12.04 19.7688 7.86664 21.7059 7.86664 22.555V24.0145H24.1333V22.555C24.1333 21.7059 19.96 19.7688 16 19.7688Z" fill="#6C63FF"/>
</svg>
